<svg width="430" height="591" viewBox="0 0 430 591" fill="none" xmlns="http://www.w3.org/2000/svg">
<path fill-rule="evenodd" clip-rule="evenodd" d="M52.653 296.599L228.163 120.836C232.551 118.639 230.357 112.048 223.776 112.048H63.6224C59.2347 112.048 57.0408 109.851 57.0408 105.457V6.59108C57.0408 2.19703 59.2347 0 63.6224 0H318.112H423.418C427.806 0 430 2.19703 430 6.59108V112.048V366.903C430 371.297 427.806 373.494 423.418 373.494H324.694C320.306 373.494 318.112 371.297 318.112 366.903V206.52C318.112 202.126 311.531 197.732 307.143 202.126L153.571 355.918C127.245 382.283 111.888 419.632 111.888 456.981V584.409C111.888 588.803 109.694 591 105.306 591H6.58163C2.19388 591 -3.05176e-05 588.803 -3.05176e-05 584.409V428.42C-3.05176e-05 377.888 19.7449 331.751 52.653 296.599Z" fill="#D3F13A"/>
</svg>
